<svg width="30" height="30" viewBox="0 0 30 30" fill="none" xmlns="http://www.w3.org/2000/svg">
<g id="saif">
<path id="Vector" d="M0.0180122 6.19003C0.398325 6.33657 0.655817 6.4255 0.904841 6.53392C10.3635 10.6555 19.8205 14.7839 29.2851 18.8928C29.8111 19.1215 30.0212 19.4002 29.9983 19.9795C29.9534 21.1247 29.9848 22.2724 29.9848 23.5413C29.5155 23.3473 29.1682 23.2092 28.8261 23.0602C19.4817 18.9928 10.1408 14.9186 0.788799 10.869C0.205202 10.6166 -0.0285785 10.3176 0.00276126 9.67383C0.0569706 8.55661 0.0180122 7.43431 0.0180122 6.19003Z" fill="white"/>
<path id="Vector_2" d="M29.9797 17.0387C23.2764 14.1199 16.7272 11.2679 9.98067 8.33046C11.7205 7.57831 13.2773 6.89222 14.8494 6.24425C15.0204 6.17395 15.2974 6.28491 15.499 6.37215C20.1559 8.39399 24.8103 10.4201 29.4571 12.4656C29.6722 12.5605 29.95 12.8315 29.9568 13.0289C30.0017 14.3062 29.9797 15.5852 29.9797 17.0387Z" fill="white"/>
<path id="Vector_3" d="M19.9899 21.378C18.2603 22.1369 16.7636 22.8077 15.25 23.4379C15.0535 23.5201 14.7452 23.443 14.5275 23.349C9.86124 21.3297 5.19923 19.3002 0.544006 17.2547C0.32971 17.1606 0.0510429 16.8913 0.0442667 16.6956C-0.000625418 15.4175 0.0213955 14.1368 0.0213955 12.6731C6.69084 15.5801 13.2324 18.432 19.9899 21.378Z" fill="white"/>
<path id="Vector_4" d="M0.0180104 19.2638C0.379688 19.3908 0.595677 19.4527 0.799809 19.5416C5.05609 21.3932 9.30899 23.2533 13.5695 25.0955C13.9761 25.2717 14.1624 25.4835 14.1497 25.9493C14.1175 27.1462 14.1387 28.3439 14.1387 29.6508C13.7931 29.5263 13.556 29.4552 13.3315 29.3577C9.14466 27.5375 4.96546 25.6995 0.767622 23.9063C0.167931 23.6505 -0.0226495 23.3286 0.00445516 22.7052C0.0527354 21.6075 0.0180104 20.5064 0.0180104 19.2638Z" fill="white"/>
<path id="Vector_5" d="M15.8624 0.0067749C16.6789 0.358289 17.3337 0.637805 17.9859 0.921557C21.7509 2.56139 25.5108 4.21223 29.2843 5.83174C29.8103 6.05789 30.0212 6.33656 29.9975 6.91847C29.9509 8.06195 29.9839 9.20966 29.9839 10.4683C29.6214 10.3345 29.3868 10.26 29.1623 10.1626C24.9738 8.33977 20.7904 6.50343 16.5925 4.70181C16.0326 4.46126 15.82 4.16904 15.848 3.55664C15.8988 2.43264 15.8624 1.30441 15.8624 0.0067749Z" fill="white"/>
<path id="Vector_6" d="M14.1362 0C14.1362 1.46026 14.1539 2.73842 14.1158 4.01573C14.1099 4.20207 13.8744 4.4638 13.6822 4.54935C11.7628 5.40823 9.83329 6.24255 7.8987 7.06585C7.70557 7.14801 7.42775 7.19121 7.24649 7.11498C5.73625 6.48479 4.23956 5.82158 2.52096 5.07366C6.46554 3.35082 10.2195 1.71098 14.1362 0Z" fill="white"/>
<path id="Vector_7" d="M27.4962 24.6509C23.5567 26.3618 19.796 27.9949 15.881 29.6957C15.881 28.2227 15.8658 26.8802 15.9039 25.5394C15.9081 25.3962 16.2029 25.2167 16.3969 25.1303C18.273 24.2951 20.1551 23.4726 22.0397 22.657C22.2193 22.579 22.4675 22.4816 22.6199 22.546C24.1988 23.205 25.7641 23.897 27.4962 24.6509Z" fill="white"/>
</g>
</svg>
